<svg xmlns="http://www.w3.org/2000/svg" xmlns:xlink="http://www.w3.org/1999/xlink" viewBox="0 0 251.87 251.88"><defs><style>.cls-1{fill:none;}.cls-2{isolation:isolate;}.cls-3{fill:#fff;}.cls-4{clip-path:url(#clip-path);}.cls-5{fill:#bccb57;}.cls-6{fill:#bd1a8c;}.cls-7{fill:#03b7eb;}.cls-8{opacity:0.22;mix-blend-mode:luminosity;}.cls-9{clip-path:url(#clip-path-2);}</style><clipPath id="clip-path"><path class="cls-1" d="M75.42,24.61a112.42,112.42,0,0,0-49.83,151h0a112.41,112.41,0,0,0,151,49.83h0a112.44,112.44,0,0,0,49.83-151h0a112.44,112.44,0,0,0-106.6-61.7h0A112.25,112.25,0,0,0,75.42,24.61"/></clipPath><clipPath id="clip-path-2"><rect class="cls-1" x="9.67" y="42.43" width="233.47" height="199.63" transform="translate(-7.57 7.1) rotate(-3.13)"/></clipPath></defs><title>Asset 1</title><g class="cls-2"><g id="Layer_2" data-name="Layer 2"><g id="LOGO_copy" data-name="LOGO copy"><path d="M238.38,69.3A125.91,125.91,0,1,1,69.29,13.48,125.91,125.91,0,0,1,238.38,69.3"/><path class="cls-3" d="M226.4,74.44a112.42,112.42,0,1,1-151-49.83,112.44,112.44,0,0,1,151,49.83"/><g class="cls-4"><path class="cls-5" d="M163.39.42s71,56.4,10.12,152.06c0,0,68.26-49.08,32.74-123.13Z"/><path class="cls-6" d="M130.48,245.6s-82.14-94-5.1-150.53c0,0-52,77.8,48,138.79,1.87,1.14-42.94,11.74-42.94,11.74"/><path class="cls-7" d="M10.65,106.25S75.42,24.62,151.42,51.61c0,0-35.52-36.74-119.15,5.65Z"/></g><g class="cls-8"><g class="cls-9"><path d="M45.21,46.72s68.16,181.14,199.64,123.72c0,0-63.65,122-196.36,46.9,0,0-86.41-73.64-3.28-170.62"/></g></g><path d="M220,56.22s30.54,64.63-64.63,116.61c0,0,104.73-12.77,95.17-52,0,0,.3-51.86-30.54-64.63"/><path d="M116.4,245.93S6.09,93.73,161.93,74.91c0,0-136.31-27.69-133.91,116.45,0,0,29,52.11,88.38,54.57"/><path d="M38.23,47.81s73.41-49.15,145.48,17c0,0-25.43-67.18-98.64-54.86,0,0-45.55,28.83-46.84,37.82"/></g></g></g></svg>